<svg width="122" height="38" viewBox="0 0 122 38" fill="none" xmlns="http://www.w3.org/2000/svg">
<path d="M41.2876 9.98932H46.9443C52.4705 9.98932 55.2771 12.9376 55.2771 18.0903V18.2755C55.2771 23.4515 52.4057 26.585 46.9231 26.585H41.2886V9.98932H41.2876ZM46.7915 22.9181C49.4453 22.9181 50.6203 21.4323 50.6203 18.3454V18.1601C50.6203 15.0034 49.4453 13.6572 46.748 13.6572H45.7692V22.9191H46.7915V22.9181Z" fill="#2524D1"/>
<path d="M56.4946 20.6662V20.481C56.4946 16.5813 59.2142 14.1208 62.7384 14.1208C66.2413 14.1208 68.9386 16.5115 68.9386 20.3646V20.5498C68.9386 24.4961 66.219 26.8634 62.7161 26.8634C59.2142 26.8644 56.4946 24.5892 56.4946 20.6662ZM64.9792 20.5974V20.4122C64.9792 18.3697 64.2181 17.2321 62.7384 17.2321C61.2809 17.2321 60.4763 18.3232 60.4763 20.3656V20.5508C60.4763 22.6398 61.2374 23.7775 62.7384 23.7775C64.1958 23.7775 64.9792 22.6166 64.9792 20.5974Z" fill="#2524D1"/>
<path d="M73.5509 25.3554L69.0034 14.4457H73.2239L75.5731 20.9223L77.7491 14.4457H81.4697L75.3777 30.6477H71.6572L73.5509 25.3554Z" fill="#2524D1"/>
<path d="M81.5347 20.6662V20.481C81.5347 16.5813 84.2542 14.1208 87.6914 14.1208C90.8026 14.1208 93.4787 16.0246 93.4787 20.3879V21.4789H85.4728C85.5811 23.0801 86.4515 24.0092 87.8442 24.0092C89.1276 24.0092 89.6721 23.3827 89.8239 22.57H93.4787C93.1305 25.3088 91.1508 26.8644 87.7136 26.8644C84.1449 26.8644 81.5347 24.6357 81.5347 20.6662ZM89.6933 19.1349C89.6276 17.6724 88.9535 16.8596 87.6914 16.8596C86.5163 16.8596 85.7117 17.6724 85.5153 19.1349H89.6933Z" fill="#2524D1"/>
<path d="M95.2617 9.10681H99.1341V26.5851H95.2617V9.10681Z" fill="#2524D1"/>
<path d="M105.661 9.98932H111.426L116.364 26.586H111.644L110.817 23.4991H105.661L104.834 26.586H100.679L105.661 9.98932ZM106.531 20.2259H109.947L108.249 13.8424L106.531 20.2259Z" fill="#2524D1"/>
<path d="M117.713 11.1502C117.713 9.91951 118.627 8.99139 119.846 8.99139C121.065 8.99139 122 9.91951 122 11.1502C122 12.38 121.065 13.2858 119.846 13.2858C118.627 13.2858 117.713 12.38 117.713 11.1502ZM117.909 14.4457H121.803V26.585H117.909V14.4457Z" fill="#2524D1"/>
<g clip-path="url(#clip0_13119_12535)">
<path d="M30.9627 35.1728H1.40279C0.628523 35.1728 0 34.5452 0 33.77V4.21108C0 3.43681 0.627511 2.80829 1.40279 2.80829H30.9627C31.737 2.80829 32.3655 3.4358 32.3655 4.21108V33.771C32.3655 34.5452 31.738 35.1728 30.9627 35.1728Z" fill="#2524D1"/>
<path d="M24.4526 18.4466C24.4526 23.9596 20.7007 27.8401 15.3142 27.8401H7.9126V8.95197H15.0592C19.558 8.95197 22.9466 11.5126 24.0589 15.4842C24.1631 15.8536 24.2472 16.2341 24.3109 16.6269C24.404 17.2098 24.4526 17.8171 24.4526 18.4466Z" fill="#FFD31E"/>
<path d="M21.5336 20.1227C21.5367 20.1227 21.5367 20.1227 21.5387 20.1196C22.5923 19.1551 23.5467 17.983 24.3817 16.6258C24.318 16.2331 24.235 15.8535 24.1287 15.4841C23.5589 16.5124 22.9263 17.4365 22.237 18.2492C22.2573 18.1936 22.2725 18.1278 22.2725 18.0539C22.2725 17.8687 22.1834 17.6288 21.8727 17.3606C21.8727 17.3606 21.3565 18.1025 22.0953 18.4112C21.3737 19.2441 20.5944 19.9526 19.7634 20.5356C19.6521 20.6166 19.5377 20.6925 19.4213 20.7684L19.394 20.6824L17.6876 20.7178L17.7179 20.7147C17.7716 20.7097 17.8121 20.7016 17.8323 20.6975C18.1613 20.6014 20.1642 20.2036 20.6581 18.0589C20.6581 18.0589 21.5802 16.8231 21.8433 16.5651L22.6662 16.4254L23.066 16.3515L23.1297 16.3383L23.0002 16.2017V16.1987L22.9141 16.1045L22.6125 16.1015H22.5791L22.5569 16.0985H22.5235L21.8808 16.0803H21.8777L20.7513 15.7027C20.7513 15.7027 19.7867 15.4649 19.4547 16.0772C19.4547 16.0772 18.8677 16.6895 18.561 16.7604C18.2574 16.8312 15.8769 17.0671 15.5024 17.2766C15.5024 17.2766 13.9002 17.9851 13.6644 18.2442C13.6644 18.2442 13.2413 18.48 13.1938 18.2674L11.6847 15.7412L10.4641 13.7008C10.4641 13.7008 10.3376 13.2757 10.0157 13.7008C9.92666 13.8202 9.68679 13.6522 9.66351 13.891C9.63821 14.1238 9.203 14.051 9.27385 14.2382C9.30927 14.3374 10.2718 15.638 11.1675 16.8383C11.96 17.899 12.6989 18.8818 12.6989 18.8818C12.6989 18.8818 12.5804 19.3049 12.9569 19.4233C12.9569 19.4233 12.3466 20.2461 12.0865 20.3403L12.1098 20.6722C12.1098 20.6722 11.6412 20.7664 11.5936 20.9283C11.545 21.0933 11.3811 21.1894 11.3811 21.1894C11.3811 21.1894 12.9833 20.9637 13.6928 20.7967C13.7768 20.7785 13.8446 20.7583 13.9002 20.7411C14.4195 20.5761 13.8294 20.906 13.8294 20.906C13.8294 20.906 14.3334 20.8908 14.9893 20.8655L16.1411 22.1216L16.136 22.1975C15.3536 22.3878 14.546 22.4839 13.7181 22.4839C11.9003 22.4839 9.9712 22.0204 7.9834 21.0305V21.909C9.94286 22.8311 11.875 23.2764 13.7181 23.2764C16.0753 23.2764 18.2857 22.5446 20.2199 21.1823C20.478 21.0002 20.7341 20.8048 20.984 20.6004C21.0063 20.8008 21.0883 21.0356 21.2857 21.2633C21.483 21.4941 21.7998 21.7188 22.2957 21.904C22.2957 21.905 22.6733 20.4435 21.5336 20.1227ZM21.235 16.6744C21.2755 16.6258 21.3191 16.5752 21.3616 16.5296C21.4172 16.4709 21.4709 16.4234 21.5215 16.393C21.6561 16.3039 21.7897 16.1754 21.8484 16.1167L21.813 16.1572L22.0103 16.144L22.567 16.1086C22.4658 16.1218 22.154 16.1693 21.9668 16.223C21.7512 16.2837 21.4962 16.5013 21.4658 16.5296C21.4628 16.5327 21.4607 16.5327 21.4607 16.5327L21.3241 16.6592L21.0812 16.8798C21.0802 16.8788 21.147 16.7827 21.235 16.6744ZM20.5994 16.1248C20.7006 16.1248 20.7847 16.2088 20.7847 16.31C20.7847 16.4112 20.7006 16.4952 20.5994 16.4952C20.4982 16.4952 20.4173 16.4112 20.4173 16.31C20.4173 16.2078 20.4982 16.1248 20.5994 16.1248ZM11.2272 16.6794L9.40947 14.3627C9.40947 14.3627 9.54105 14.3779 9.51575 14.2564C9.49753 14.1704 10.4094 15.4011 11.2697 16.5782L12.7282 18.5883L11.2272 16.6794ZM12.3355 20.4111C12.3355 20.4111 14.9812 19.2917 15.2696 18.6976C15.2696 18.6976 15.9174 18.9304 16.2828 18.7229C16.6451 18.5154 17.9942 16.9304 18.4882 17.4517C18.4882 17.4517 19.1106 17.7887 18.6703 18.4901C18.6703 18.4901 18.7209 17.7887 18.5388 17.9183C18.3586 18.0478 18.3839 18.4628 17.8151 18.5407C17.2433 18.6197 17.0864 18.7482 16.9315 19.0093C16.7767 19.2674 15.9973 19.4496 15.7109 19.2168C15.5642 19.0974 15.4194 19.2269 15.3111 19.3838C15.1492 19.6217 14.9235 19.8089 14.6583 19.9233C13.9792 20.2056 12.7737 20.6459 12.3355 20.4111ZM14.8729 20.6743L14.4498 20.656C14.4498 20.656 18.3333 19.3595 18.5863 18.9445C18.5863 18.9445 19.2118 19.4708 19.2118 19.9142C19.2118 19.9152 18.0803 20.8089 14.8729 20.6743ZM16.6704 22.0538L16.4346 22.0406L15.1532 20.8605C15.7332 20.8372 16.3992 20.8068 16.9285 20.7765L16.6117 20.8423L18.475 20.9566L18.5357 21.2178L18.7969 20.9799L19.0448 21.0002C18.2878 21.4536 17.4932 21.8058 16.6704 22.0538Z" fill="#2524D1"/>
</g>
<defs>
<clipPath id="clip0_13119_12535">
<rect y="2.80829" width="32.3655" height="32.3645" rx="3.78131" fill="white"/>
</clipPath>
</defs>
</svg>
